<?xml version="1.0" encoding="utf-8" standalone="no"?><!DOCTYPE svg PUBLIC "-//W3C//DTD SVG 20010904//EN" "http://www.w3.org/TR/2001/REC-SVG-20010904/DTD/svg10.dtd"><svg xmlns="http://www.w3.org/2000/svg" width="762" height="238" xmlns:xlink="http://www.w3.org/1999/xlink"><source><![CDATA[MetaMask Extension-> Goerlia Test Network: Create Wallet
Note right of Buy Ethers: Test Fuscet]]></source><desc></desc><defs><marker viewBox="0 0 5 5" markerWidth="5" markerHeight="5" orient="auto" refX="5" refY="2.5" id="markerArrowBlock"><path d="M 0 0 L 5 2.5 L 0 5 z"></path></marker><marker viewBox="0 0 9.6 16" markerWidth="4" markerHeight="16" orient="auto" refX="9.6" refY="8" id="markerArrowOpen"><path d="M 9.6,8 1.92,16 0,13.7 5.76,8 0,2.286 1.92,0 9.6,8 z"></path></marker></defs><g class="title"></g><g class="actor"><path d="M10,20C114.8,12.3 122.9,27.7 203.1,20.0C205.0,57.5 201.2,38.6 203.1,67.7C119.4,60.0 172.2,75.5 10.0,67.7C8.1,51.1 11.9,57.9 10.0,20.0" style="stroke-width: 2px;" stroke="#000000" fill="#ffffff"></path><text x="20" y="49.34166717529297" style="font-size: 16px; font-family: danielbd;"><tspan x="20">MetaMask Extension</tspan></text></g><g class="actor"><path d="M10,170.98333358764648C160.9,163.3 40.9,178.7 203.1,171.0C205.0,182.5 201.2,211.1 203.1,218.7C146.3,211.0 86.0,226.4 10.0,218.7C8.1,180.9 11.9,189.2 10.0,171.0" style="stroke-width: 2px;" stroke="#000000" fill="#ffffff"></path><text x="20" y="200.32500076293945" style="font-size: 16px; font-family: danielbd;"><tspan x="20">MetaMask Extension</tspan></text></g><path d="M106.5,67.7C102.4,146.2 110.7,101.0 106.5,171.0" style="stroke-width: 2px;" stroke="#000000" fill="none"></path><g class="actor"><path d="M223.0833282470703,20C304.2,28.4 373.6,11.6 434.1,20.0C432.2,53.0 436.1,60.1 434.1,67.7C273.7,59.3 295.5,76.2 223.1,67.7C221.2,32.9 225.0,31.5 223.1,20.0" style="stroke-width: 2px;" stroke="#000000" fill="#ffffff"></path><text x="233.0833282470703" y="49.291666984558105" style="font-size: 16px; font-family: danielbd;"><tspan x="233.0833282470703">Goerlia Test Network</tspan></text></g><g class="actor"><path d="M223.0833282470703,170.98333358764648C400.4,179.4 382.0,162.5 434.1,171.0C436.1,199.9 432.2,211.1 434.1,218.7C305.1,227.2 325.4,210.3 223.1,218.7C221.2,195.1 225.0,204.8 223.1,171.0" style="stroke-width: 2px;" stroke="#000000" fill="#ffffff"></path><text x="233.0833282470703" y="200.2750005722046" style="font-size: 16px; font-family: danielbd;"><tspan x="233.0833282470703">Goerlia Test Network</tspan></text></g><path d="M328.6,67.7C324.5,154.5 332.7,124.3 328.6,171.0" style="stroke-width: 2px;" stroke="#000000" fill="none"></path><g class="actor"><path d="M454.1499938964844,20C560.7,25.1 474.4,14.9 581.0,20.0C579.1,56.3 582.9,55.0 581.0,67.7C551.3,62.7 550.5,72.8 454.1,67.7C452.2,60.1 456.1,47.2 454.1,20.0" style="stroke-width: 2px;" stroke="#000000" fill="#ffffff"></path><text x="464.1499938964844" y="44.71666717529297" style="font-size: 16px; font-family: danielbd;"><tspan x="464.1499938964844">Buy Ethers</tspan></text></g><g class="actor"><path d="M454.1499938964844,170.98333358764648C528.0,176.1 550.5,165.9 581.0,171.0C579.1,188.7 582.9,206.0 581.0,218.7C498.0,213.6 492.2,223.8 454.1,218.7C452.2,201.7 456.1,193.1 454.1,171.0" style="stroke-width: 2px;" stroke="#000000" fill="#ffffff"></path><text x="464.1499938964844" y="195.70000076293945" style="font-size: 16px; font-family: danielbd;"><tspan x="464.1499938964844">Buy Ethers</tspan></text></g><path d="M517.6,67.7C513.4,125.5 521.7,141.3 517.6,171.0" style="stroke-width: 2px;" stroke="#000000" fill="none"></path><g class="signal"><text x="158.04582977294922" y="98.15833377838135" style="font-size: 16px; font-family: danielbd;"><tspan x="158.04582977294922">Create Wallet</tspan></text><path d="M106.5,105.0C226.3,96.1 159.8,113.9 328.6,105.0" style="stroke-width: 2px; marker-end: url(&quot;#markerArrowBlock&quot;);" stroke="#000000" fill="none"></path></g><g class="note"><path d="M537.5583267211914,124.98333358764648C569.9,120.5 555.4,129.5 649.2,125.0C648.2,138.5 650.3,146.8 649.2,151.0C631.4,146.5 622.4,155.5 537.6,151.0C538.6,145.0 536.5,144.7 537.6,125.0" style="stroke-width: 2px;" stroke="#000000" fill="#ffffff"></path><text x="542.5583267211914" y="142.78333377838135" style="font-size: 16px; font-family: danielbd;"><tspan x="542.5583267211914">Test Fuscet</tspan></text></g></svg>