<?xml version="1.0" encoding="utf-8" standalone="no"?><!DOCTYPE svg PUBLIC "-//W3C//DTD SVG 20010904//EN" "http://www.w3.org/TR/2001/REC-SVG-20010904/DTD/svg10.dtd"><svg xmlns="http://www.w3.org/2000/svg" width="352" height="188" xmlns:xlink="http://www.w3.org/1999/xlink"><source><![CDATA[Smart Contract->Flutter App: RPC API (Infura)]]></source><desc></desc><defs><marker viewBox="0 0 5 5" markerWidth="5" markerHeight="5" orient="auto" refX="5" refY="2.5" id="markerArrowBlock"><path d="M 0 0 L 5 2.5 L 0 5 z"></path></marker><marker viewBox="0 0 9.6 16" markerWidth="4" markerHeight="16" orient="auto" refX="9.6" refY="8" id="markerArrowOpen"><path d="M 9.6,8 1.92,16 0,13.7 5.76,8 0,2.286 1.92,0 9.6,8 z"></path></marker></defs><g class="title"></g><g class="actor"><path d="M10,20C147.3,13.5 36.2,26.5 173.5,20.0C171.6,30.9 175.3,44.6 173.5,65.4C67.1,72.0 46.5,58.9 10.0,65.4C8.2,44.3 11.8,58.1 10.0,20.0" style="stroke-width: 2px;" stroke="#000000" fill="#ffffff"></path><text x="20.0166666675359" y="47.50833320617676" style="font-size: 16px; font-family: danielbd;"><tspan x="20">Smart Contract</tspan></text></g><g class="actor"><path d="M10,123.23333358764648C85.6,116.7 130.4,129.8 173.5,123.2C175.3,134.1 171.6,140.7 173.5,168.6C147.3,162.1 109.1,175.2 10.0,168.6C8.2,159.6 11.8,137.0 10.0,123.2" style="stroke-width: 2px;" stroke="#000000" fill="#ffffff"></path><text x="20.0166666675359" y="150.74166679382324" style="font-size: 16px; font-family: danielbd;"><tspan x="20">Smart Contract</tspan></text></g><path d="M91.7,65.4C89.4,109.0 94.0,85.0 91.7,123.2" style="stroke-width: 2px;" stroke="#000000" fill="none"></path><g class="actor"><path d="M197.19998931884766,20C258.7,25.0 217.2,15.0 322.1,20.0C320.2,27.3 323.9,58.1 322.1,65.4C270.0,60.4 256.1,70.4 197.2,65.4C195.4,32.6 199.0,51.7 197.2,20.0" style="stroke-width: 2px;" stroke="#000000" fill="#ffffff"></path><text x="207.19998931884766" y="44.61666679382324" style="font-size: 16px; font-family: danielbd;"><tspan x="207.19998931884766">Flutter App</tspan></text></g><g class="actor"><path d="M197.19998931884766,123.23333358764648C218.7,128.2 258.8,118.2 322.1,123.2C323.9,160.2 320.2,141.4 322.1,168.6C292.1,173.6 270.5,163.7 197.2,168.6C199.0,145.5 195.4,158.3 197.2,123.2" style="stroke-width: 2px;" stroke="#000000" fill="#ffffff"></path><text x="207.19998931884766" y="147.85000038146973" style="font-size: 16px; font-family: danielbd;"><tspan x="207.19998931884766">Flutter App</tspan></text></g><path d="M259.6,65.4C257.3,90.4 261.9,107.7 259.6,123.2" style="stroke-width: 2px;" stroke="#000000" fill="none"></path><g class="signal"><text x="101.73332977294922" y="96.12499904632568" style="font-size: 16px; font-family: danielbd;"><tspan x="101.73332977294922">RPC API (Infura)</tspan></text><path d="M91.7,103.2C219.3,96.5 132.0,109.9 259.6,103.2" style="stroke-width: 2px; marker-end: url(&quot;#markerArrowBlock&quot;);" stroke="#000000" fill="none"></path></g></svg>